<?xml version="1.0" standalone="no"?>
<!DOCTYPE svg PUBLIC "-//W3C//DTD SVG 20010904//EN"
 "http://www.w3.org/TR/2001/REC-SVG-20010904/DTD/svg10.dtd">
<svg version="1.0" xmlns="http://www.w3.org/2000/svg"
 width="512.000000pt" height="512.000000pt" viewBox="0 0 512.000000 512.000000"
 preserveAspectRatio="xMidYMid meet">

<g transform="translate(0.000000,512.000000) scale(0.100000,-0.100000)"
fill="#FFFFFF" stroke="none">
<path d="M1509 3978 c-659 -394 -632 -378 -626 -384 2 -2 476 -99 1052 -214
l1048 -210 601 361 c330 199 603 363 605 365 2 2 2 6 0 8 -2 2 -470 97 -1039
211 -569 113 -1040 208 -1046 210 -6 2 -274 -154 -595 -347z"/>
<path d="M3635 3467 l-600 -362 -3 -1142 c-1 -629 1 -1143 4 -1143 3 0 280
164 615 366 l609 365 0 1140 c0 905 -3 1139 -12 1138 -7 0 -283 -163 -613
-362z"/>
<path d="M840 2376 c0 -630 1 -1146 3 -1146 1 0 475 -94 1052 -210 577 -115
1051 -210 1052 -210 2 0 3 515 3 1144 l0 1143 -1037 207 c-571 114 -1046 209
-1055 212 -17 5 -18 -54 -18 -1140z"/>
</g>
</svg>
