<?xml version="1.0" standalone="no"?>
<!DOCTYPE svg PUBLIC "-//W3C//DTD SVG 20010904//EN"
 "http://www.w3.org/TR/2001/REC-SVG-20010904/DTD/svg10.dtd">
<svg version="1.0" xmlns="http://www.w3.org/2000/svg"
 width="512.000000pt" height="512.000000pt" viewBox="0 0 512.000000 512.000000"
 preserveAspectRatio="xMidYMid meet">

<g transform="translate(0.000000,512.000000) scale(0.100000,-0.100000)"
fill="#FFFFFF" stroke="none">
<path d="M640 2560 l0 -1280 403 0 403 0 46 63 46 62 -384 3 -384 2 0 1150 0
1150 1249 0 1249 0 39 53 c22 28 43 58 47 65 6 9 -268 12 -1353 12 l-1361 0 0
-1280z"/>
<path d="M3307 3563 l-208 -278 470 -3 471 -2 0 -720 0 -720 -1013 0 -1012 0
-200 -266 c-110 -147 -204 -273 -208 -280 -7 -12 220 -14 1433 -14 l1440 0 0
1280 0 1280 -483 0 -482 0 -208 -277z"/>
<path d="M1200 2560 l0 -720 333 0 332 0 530 706 c292 389 534 713 538 720 7
12 -129 14 -863 14 l-870 0 0 -720z"/>
</g>
</svg>
