<?xml version="1.0" standalone="no"?>
<!DOCTYPE svg PUBLIC "-//W3C//DTD SVG 20010904//EN"
 "http://www.w3.org/TR/2001/REC-SVG-20010904/DTD/svg10.dtd">
<svg version="1.0" xmlns="http://www.w3.org/2000/svg"
 width="512.000000pt" height="512.000000pt" viewBox="0 0 512.000000 512.000000"
 preserveAspectRatio="xMidYMid meet">

<g transform="translate(0.000000,512.000000) scale(0.100000,-0.100000)"
fill="#FFFFFF" stroke="none">
<path d="M1423 3973 l-643 -386 0 -1199 0 -1198 23 -9 c12 -4 513 -106 1112
-225 l1090 -218 640 384 640 384 0 1204 0 1204 -1080 216 c-594 119 -1093 219
-1110 222 -26 5 -108 -41 -672 -379z m2517 -173 c-1 -3 -222 -137 -492 -299
l-490 -293 -389 77 -389 78 0 397 0 397 880 -176 c484 -97 880 -178 880 -181z
m-1943 -396 c-3 -3 -835 161 -862 169 -5 2 186 121 425 264 l435 261 3 -345
c1 -191 1 -348 -1 -349z m2110 -1730 c-2 -2 -235 43 -518 99 l-514 103 -3 591
-2 592 517 310 518 311 3 -1002 c1 -551 1 -1003 -1 -1004z m-2129 1551 l22 -5
0 -593 -1 -592 -476 -285 c-262 -157 -493 -295 -515 -308 l-38 -23 0 1004 0
1004 493 -98 c270 -54 502 -101 515 -104z m572 -113 l335 -68 3 -565 2 -566
-112 22 c-62 13 -222 44 -355 71 l-243 48 0 563 c0 530 1 563 18 563 9 -1 168
-31 352 -68z m-20 -1307 l355 -71 3 -397 c1 -218 1 -397 -1 -397 -12 0 -1751
351 -1754 354 -3 2 217 137 488 299 437 262 496 295 523 290 17 -4 191 -39
386 -78z m980 -196 c228 -45 418 -84 422 -88 6 -6 -841 -521 -856 -521 -3 0
-6 157 -6 350 0 275 3 348 13 345 6 -2 199 -41 427 -86z"/>
</g>
</svg>
